<?xml version="1.0" encoding="UTF-8"?>
<!DOCTYPE svg PUBLIC "-//W3C//DTD SVG 1.1//EN" "http://www.w3.org/Graphics/SVG/1.1/DTD/svg11.dtd">
<svg xmlns="http://www.w3.org/2000/svg" version="1.1" width="512px" height="512px" style="shape-rendering:geometricPrecision; text-rendering:geometricPrecision; image-rendering:optimizeQuality; fill-rule:evenodd; clip-rule:evenodd" xmlns:xlink="http://www.w3.org/1999/xlink">
<g><path style="opacity:0.926" fill="#fff" d="M 109.5,31.5 C 125.231,29.6096 139.564,33.1096 152.5,42C 171.365,59.1982 189.199,77.3648 206,96.5C 217.274,116.506 217.274,136.506 206,156.5C 201.043,163.126 195.709,169.46 190,175.5C 188.524,180.076 188.19,184.743 189,189.5C 192.484,196.466 196.484,203.132 201,209.5C 232.659,253.492 271.159,290.325 316.5,320C 323.537,324.517 330.537,324.517 337.5,320C 358.522,296.395 383.522,291.061 412.5,304C 416.11,305.944 419.443,308.277 422.5,311C 437,325.5 451.5,340 466,354.5C 480.891,373.846 483.557,394.846 474,417.5C 456.006,444.499 431.839,463.666 401.5,475C 369.627,483.875 339.293,480.208 310.5,464C 204.667,394.167 116.833,306.333 47,200.5C 29.4234,168.39 26.7568,135.057 39,100.5C 43.4057,90.0114 49.0724,80.3447 56,71.5C 66.5293,60.6366 77.3626,50.1366 88.5,40C 95.1874,36.0569 102.187,33.2235 109.5,31.5 Z M 110.5,48.5 C 122.237,46.6436 132.903,49.1436 142.5,56C 159.029,72.1952 175.196,88.6952 191,105.5C 201.91,127.026 197.91,145.359 179,160.5C 171.049,171.486 169.049,183.486 173,196.5C 206.646,252.813 251.146,298.646 306.5,334C 327.069,344.626 344.735,340.959 359.5,323C 375.655,310.934 391.988,310.601 408.5,322C 424,337.5 439.5,353 455,368.5C 466.777,385.425 466.11,401.758 453,417.5C 445.5,425 438,432.5 430.5,440C 396.851,465.796 360.851,469.462 322.5,451C 217,381.5 129.5,294 60,188.5C 47.8596,165.238 45.1929,140.904 52,115.5C 56.1621,102.03 62.8288,90.0305 72,79.5C 81.2711,69.2232 91.4378,60.0565 102.5,52C 105.374,51.0575 108.04,49.8908 110.5,48.5 Z"/></g>
<g><path style="opacity:0.928" fill="#fff" d="M 256.5,37.5 C 337.327,39.9817 399.493,74.9817 443,142.5C 464.094,177.209 474.094,214.875 473,255.5C 468.076,263.088 462.743,263.421 457,256.5C 453.892,173.791 416.058,112.957 343.5,74C 314.579,60.853 284.246,53.853 252.5,53C 248.04,46.2277 249.373,41.061 256.5,37.5 Z"/></g>
<g><path style="opacity:0.927" fill="#fff" d="M 255.5,103.5 C 320.982,105.309 367.815,135.642 396,194.5C 404.522,213.968 408.189,234.302 407,255.5C 401.718,263.485 396.384,263.485 391,255.5C 388.509,197.649 361.343,156.149 309.5,131C 291.408,124.208 272.741,120.208 253.5,119C 248.079,113.083 248.746,107.916 255.5,103.5 Z"/></g>
<g><path style="opacity:0.923" fill="#fff" d="M 254.5,169.5 C 297.08,169.918 325.246,190.251 339,230.5C 341.242,239.047 341.909,247.713 341,256.5C 336.442,262.607 331.442,262.94 326,257.5C 322.491,212.657 298.324,188.491 253.5,185C 248.113,179.444 248.446,174.278 254.5,169.5 Z"/></g>
</svg>
