<?xml version="1.0" standalone="no"?>
<!DOCTYPE svg PUBLIC "-//W3C//DTD SVG 20010904//EN"
 "http://www.w3.org/TR/2001/REC-SVG-20010904/DTD/svg10.dtd">
<svg version="1.0" xmlns="http://www.w3.org/2000/svg"
 width="512.000000pt" height="512.000000pt" viewBox="0 0 512.000000 512.000000"
 preserveAspectRatio="xMidYMid meet">

<g transform="translate(0.000000,512.000000) scale(0.100000,-0.100000)"
fill="#fff" stroke="none">
<path d="M2390 5110 c-686 -86 -1219 -680 -1223 -1365 0 -137 17 -235 70 -395
121 -362 386 -832 871 -1540 88 -129 218 -319 288 -422 70 -102 135 -189 146
-191 36 -10 57 6 104 76 26 40 120 178 209 307 471 683 677 1013 855 1370 235
468 286 721 215 1064 -110 531 -550 967 -1087 1076 -118 24 -334 34 -448 20z
m320 -120 c290 -36 542 -160 750 -369 223 -224 337 -469 371 -793 41 -407
-226 -949 -1080 -2188 -101 -146 -186 -265 -191 -265 -10 0 -313 439 -536 775
-325 492 -538 876 -652 1175 -109 285 -115 513 -21 801 185 568 765 937 1359
864z"/>
<path d="M2395 4426 c-233 -54 -423 -202 -526 -411 -149 -304 -84 -681 157
-905 151 -140 328 -210 534 -210 162 0 310 44 437 131 316 217 425 637 254
984 -91 184 -257 327 -456 391 -99 33 -302 42 -400 20z m341 -129 c176 -51
327 -174 403 -329 54 -109 71 -182 71 -298 0 -181 -63 -334 -189 -460 -131
-130 -275 -190 -461 -190 -186 0 -330 60 -461 190 -83 83 -145 192 -174 305
-19 77 -19 234 0 310 47 181 173 342 335 425 138 72 327 90 476 47z"/>
<path d="M1358 1668 c-130 -62 -245 -144 -343 -243 -152 -153 -210 -281 -210
-460 0 -179 58 -306 210 -460 516 -525 1768 -666 2633 -298 200 85 332 171
457 297 50 50 107 120 128 156 182 314 68 661 -300 909 -41 28 -83 51 -92 51
-10 0 -28 -11 -40 -24 -37 -39 -23 -68 63 -125 151 -102 270 -240 312 -363 26
-72 26 -214 0 -286 -43 -125 -169 -270 -323 -372 -603 -399 -1719 -440 -2428
-89 -663 327 -671 859 -17 1199 88 46 105 69 84 114 -17 38 -46 37 -134 -6z"/>
<path d="M1783 1554 c-234 -123 -353 -291 -341 -479 17 -261 314 -482 761
-566 142 -27 430 -37 578 -20 426 49 754 220 862 448 29 62 32 77 32 163 0 86
-3 101 -32 163 -36 75 -109 159 -197 224 -69 51 -107 56 -132 18 -24 -38 -11
-68 45 -105 74 -47 165 -149 185 -206 40 -119 4 -228 -112 -335 -114 -105
-319 -192 -557 -237 -70 -13 -143 -17 -325 -16 -204 0 -249 3 -338 22 -324 70
-544 196 -623 357 -27 56 -31 72 -27 127 2 40 13 81 28 111 31 61 136 161 218
207 92 51 112 68 112 96 0 26 -32 64 -54 64 -8 0 -45 -16 -83 -36z"/>
</g>
</svg>
