<?xml version="1.0" encoding="UTF-8"?>
<!DOCTYPE svg PUBLIC "-//W3C//DTD SVG 1.1//EN" "http://www.w3.org/Graphics/SVG/1.1/DTD/svg11.dtd">
<svg xmlns="http://www.w3.org/2000/svg" version="1.1" width="512px" height="512px" style="shape-rendering:geometricPrecision; text-rendering:geometricPrecision; image-rendering:optimizeQuality; fill-rule:evenodd; clip-rule:evenodd" xmlns:xlink="http://www.w3.org/1999/xlink">
<g><path style="opacity:0.941" fill="#fff" d="M 511.5,138.5 C 511.5,143.167 511.5,147.833 511.5,152.5C 507.597,162.362 503.763,172.362 500,182.5C 491.851,193.771 481.018,197.271 467.5,193C 441.187,187.892 414.853,182.892 388.5,178C 379.586,176.631 373.42,171.798 370,163.5C 366.974,149.535 364.14,135.535 361.5,121.5C 360.975,120.808 360.308,120.308 359.5,120C 356.183,119.502 352.85,119.335 349.5,119.5C 349.5,139.167 349.5,158.833 349.5,178.5C 361.591,176.636 371.091,180.636 378,190.5C 387.667,214.167 397.333,237.833 407,261.5C 408.782,268.282 406.282,272.282 399.5,273.5C 397.226,273.03 395.226,272.03 393.5,270.5C 383.39,246.614 373.557,222.614 364,198.5C 362.786,196.951 361.286,195.785 359.5,195C 290.167,194.333 220.833,194.333 151.5,195C 149.714,195.785 148.214,196.951 147,198.5C 121.862,260.914 96.5289,323.247 71,385.5C 70.3333,412.833 70.3333,440.167 71,467.5C 72.3783,470.108 74.545,471.608 77.5,472C 145.833,472.333 214.167,472.667 282.5,473C 287.833,477.667 287.833,482.333 282.5,487C 211.833,487.667 141.167,487.667 70.5,487C 62.2343,484.401 57.0677,478.901 55,470.5C 54.0234,440.105 54.3568,409.772 56,379.5C 81.6667,316.5 107.333,253.5 133,190.5C 139.909,180.636 149.409,176.636 161.5,178.5C 161.5,158.833 161.5,139.167 161.5,119.5C 158.15,119.335 154.817,119.502 151.5,120C 150.692,120.308 150.025,120.808 149.5,121.5C 146.86,135.535 144.026,149.535 141,163.5C 137.58,171.798 131.414,176.631 122.5,178C 94.1867,183.441 65.8534,188.774 37.5,194C 26.0662,195.972 17.2328,192.139 11,182.5C 7.23657,172.362 3.40323,162.362 -0.5,152.5C -0.5,147.833 -0.5,143.167 -0.5,138.5C 4.61713,120.036 9.45046,101.369 14,82.5C 19.8077,65.6705 31.3077,54.8371 48.5,50C 61.6222,47.2422 74.7889,44.7422 88,42.5C 94.88,43.052 97.5467,46.7187 96,53.5C 94.8906,55.8147 93.0573,57.3147 90.5,58C 76.4109,60.6177 62.4109,63.6177 48.5,67C 39.1884,71.6436 32.6884,78.8103 29,88.5C 25.4787,103.919 21.6454,119.252 17.5,134.5C 21.1291,135.238 24.7957,135.071 28.5,134C 63.4799,127.226 98.4799,120.559 133.5,114C 136.151,111.02 139.151,108.353 142.5,106C 148.742,104.63 155.075,104.13 161.5,104.5C 160.295,94.736 164.295,88.236 173.5,85C 184.5,84.3333 195.5,84.3333 206.5,85C 215.74,88.0967 220.073,94.5967 219.5,104.5C 243.5,104.5 267.5,104.5 291.5,104.5C 290.927,94.5967 295.26,88.0967 304.5,85C 315.5,84.3333 326.5,84.3333 337.5,85C 346.705,88.236 350.705,94.736 349.5,104.5C 355.925,104.13 362.258,104.63 368.5,106C 371.849,108.353 374.849,111.02 377.5,114C 415.333,121.167 453.167,128.333 491,135.5C 491.833,135.167 492.667,134.833 493.5,134.5C 489.442,117.375 484.942,100.375 480,83.5C 475.303,75.1339 468.469,69.3006 459.5,66C 426.957,59.0247 394.29,52.6914 361.5,47C 281.779,35.2415 202.279,36.7415 123,51.5C 116.099,50.2502 113.766,46.2502 116,39.5C 116.5,37.6667 117.667,36.5 119.5,36C 200.552,21.2614 281.886,19.5948 363.5,31C 396.596,36.8193 429.596,43.1526 462.5,50C 479.692,54.8371 491.192,65.6705 497,82.5C 501.55,101.369 506.383,120.036 511.5,138.5 Z M 177.5,100.5 C 186.085,100.183 194.585,100.517 203,101.5C 203.333,114.833 203.667,128.167 204,141.5C 205.442,145.275 207.942,148.108 211.5,150C 226.102,151.142 240.768,151.642 255.5,151.5C 270.232,151.642 284.898,151.142 299.5,150C 303.039,148.093 305.539,145.26 307,141.5C 307.333,128.167 307.667,114.833 308,101.5C 316.415,100.517 324.915,100.183 333.5,100.5C 333.5,126.5 333.5,152.5 333.5,178.5C 281.5,178.5 229.5,178.5 177.5,178.5C 177.5,152.5 177.5,126.5 177.5,100.5 Z M 219.5,119.5 C 243.5,119.5 267.5,119.5 291.5,119.5C 291.5,124.833 291.5,130.167 291.5,135.5C 267.5,135.5 243.5,135.5 219.5,135.5C 219.5,130.167 219.5,124.833 219.5,119.5 Z M 379.5,131.5 C 416.636,137.822 453.969,144.656 491.5,152C 492.428,152.388 493.095,153.055 493.5,154C 490.805,161.223 487.972,168.389 485,175.5C 483.278,177.444 481.111,178.444 478.5,178.5C 449.179,172.936 419.845,167.436 390.5,162C 387.943,161.315 386.109,159.815 385,157.5C 383.259,148.686 381.425,140.02 379.5,131.5 Z M 130.5,131.5 C 129.541,140.257 128.041,148.924 126,157.5C 123.479,161.013 119.979,162.846 115.5,163C 87.8333,168.167 60.1667,173.333 32.5,178.5C 29.8887,178.444 27.722,177.444 26,175.5C 23.0282,168.389 20.1948,161.223 17.5,154C 17.9054,153.055 18.572,152.388 19.5,152C 56.4567,144.842 93.4567,138.008 130.5,131.5 Z"/></g>
<g><path style="opacity:0.925" fill="#fff" d="M 246.5,215.5 C 307.847,215.235 348.68,243.902 369,301.5C 381.304,359.297 362.804,404.13 313.5,436C 285.274,451.022 255.607,454.688 224.5,447C 176.561,432.06 148.061,399.894 139,350.5C 137.282,341.137 137.282,331.804 139,322.5C 139.5,320.667 140.667,319.5 142.5,319C 146.987,317.622 150.487,318.788 153,322.5C 152.175,372.064 174.008,407.231 218.5,428C 264.937,443.101 304.104,432.268 336,395.5C 364.255,354.752 364.589,313.752 337,272.5C 302.261,231.941 260.094,221.774 210.5,242C 186.554,254.947 169.22,273.947 158.5,299C 153,301.277 148.833,299.777 146,294.5C 147.011,286.146 150.011,278.48 155,271.5C 176.681,238.41 207.181,219.743 246.5,215.5 Z M 252.5,263.5 C 257.717,262.439 261.05,264.439 262.5,269.5C 257.833,278.833 253.167,278.833 248.5,269.5C 249.361,267.089 250.694,265.089 252.5,263.5 Z M 251.5,323.5 C 264.312,323.141 268.146,328.808 263,340.5C 255.782,345.357 250.115,344.023 246,336.5C 244.571,330.7 246.404,326.367 251.5,323.5 Z M 198.5,358.5 C 205.088,358.657 207.588,361.99 206,368.5C 201.181,372.919 197.181,372.252 194,366.5C 193.675,362.817 195.175,360.15 198.5,358.5 Z M 308.5,358.5 C 314.177,358.347 317.011,361.014 317,366.5C 313.819,372.252 309.819,372.919 305,368.5C 303.756,364.191 304.923,360.858 308.5,358.5 Z M 253.5,390.5 C 258.299,390.228 261.299,392.395 262.5,397C 261.144,402.365 257.81,404.365 252.5,403C 247.505,398.462 247.838,394.296 253.5,390.5 Z"/></g>
<g><path style="opacity:0.923" fill="#fff" d="M 248.5,247.5 C 265.638,245.324 275.638,252.657 278.5,269.5C 277.153,283.513 269.487,291.18 255.5,292.5C 236.58,289.069 229.746,278.069 235,259.5C 238.225,253.986 242.725,249.986 248.5,247.5 Z M 252.5,263.5 C 250.694,265.089 249.361,267.089 248.5,269.5C 253.167,278.833 257.833,278.833 262.5,269.5C 261.05,264.439 257.717,262.439 252.5,263.5 Z"/></g>
<g><path style="opacity:0.928" fill="#fff" d="M 197.5,278.5 C 212.866,278.662 221.199,286.329 222.5,301.5C 221.28,315.221 213.78,322.888 200,324.5C 186.252,322.919 178.752,315.252 177.5,301.5C 178.56,288.783 185.227,281.116 197.5,278.5 Z M 199.5,294.5 C 205.134,295.627 207.301,298.96 206,304.5C 203.469,308.202 200.302,309.035 196.5,307C 192.086,301.488 193.086,297.322 199.5,294.5 Z"/></g>
<g><path style="opacity:0.929" fill="#fff" d="M 308.5,278.5 C 327.902,280.068 335.736,290.402 332,309.5C 325.155,322.674 314.655,326.841 300.5,322C 287.865,313.388 285.031,302.221 292,288.5C 296.145,282.688 301.645,279.354 308.5,278.5 Z M 309.5,294.5 C 316.333,295.505 318.499,299.172 316,305.5C 310.342,309.763 306.509,308.43 304.5,301.5C 305.014,298.323 306.681,295.989 309.5,294.5 Z"/></g>
<g><path style="opacity:0.952" fill="#fff" d="M 410.5,289.5 C 415.421,289.043 418.921,291.043 421,295.5C 432.667,324.5 444.333,353.5 456,382.5C 456.667,411.833 456.667,441.167 456,470.5C 453.932,478.901 448.766,484.401 440.5,487C 396.459,487.828 352.459,487.661 308.5,486.5C 304.27,481.622 304.603,477.122 309.5,473C 350.833,472.667 392.167,472.333 433.5,472C 436.455,471.608 438.622,470.108 440,467.5C 440.667,440.167 440.667,412.833 440,385.5C 427.884,356.27 416.051,326.936 404.5,297.5C 405.077,293.645 407.077,290.978 410.5,289.5 Z"/></g>
<g><path style="opacity:0.927" fill="#fff" d="M 248.5,307.5 C 271.488,305.988 282.321,316.655 281,339.5C 278.509,349.991 272.009,356.491 261.5,359C 236.67,359.834 226.504,348.001 231,323.5C 234.503,315.492 240.336,310.159 248.5,307.5 Z M 251.5,323.5 C 246.404,326.367 244.571,330.7 246,336.5C 250.115,344.023 255.782,345.357 263,340.5C 268.146,328.808 264.312,323.141 251.5,323.5 Z"/></g>
<g><path style="opacity:0.926" fill="#fff" d="M 195.5,342.5 C 215.356,342.186 224.189,351.853 222,371.5C 217.236,384.302 208.069,389.469 194.5,387C 179.241,380.973 174.408,370.139 180,354.5C 183.695,348.424 188.862,344.424 195.5,342.5 Z M 198.5,358.5 C 195.175,360.15 193.675,362.817 194,366.5C 197.181,372.252 201.181,372.919 206,368.5C 207.588,361.99 205.088,358.657 198.5,358.5 Z"/></g>
<g><path style="opacity:0.927" fill="#fff" d="M 306.5,342.5 C 324.604,342.437 333.437,351.437 333,369.5C 328.743,383.557 319.243,389.39 304.5,387C 291.39,381.954 286.223,372.454 289,358.5C 291.882,349.828 297.715,344.495 306.5,342.5 Z M 308.5,358.5 C 304.923,360.858 303.756,364.191 305,368.5C 309.819,372.919 313.819,372.252 317,366.5C 317.011,361.014 314.177,358.347 308.5,358.5 Z"/></g>
<g><path style="opacity:0.924" fill="#fff" d="M 250.5,374.5 C 266.819,373.32 276.152,380.82 278.5,397C 274.057,417.555 262.057,423.889 242.5,416C 229.686,403.956 229.352,391.623 241.5,379C 244.324,376.921 247.324,375.421 250.5,374.5 Z M 253.5,390.5 C 247.838,394.296 247.505,398.462 252.5,403C 257.81,404.365 261.144,402.365 262.5,397C 261.299,392.395 258.299,390.228 253.5,390.5 Z"/></g>
<g><path style="opacity:0.923" fill="#fff" d="M 91.5,429.5 C 108.503,429.333 125.503,429.5 142.5,430C 144.333,430.5 145.5,431.667 146,433.5C 147.992,439.337 146.158,443.171 140.5,445C 124.833,445.667 109.167,445.667 93.5,445C 87.8418,443.171 86.0084,439.337 88,433.5C 88.6897,431.65 89.8564,430.316 91.5,429.5 Z"/></g>
</svg>
