<?xml version="1.0" encoding="UTF-8"?>
<!DOCTYPE svg PUBLIC "-//W3C//DTD SVG 1.1//EN" "http://www.w3.org/Graphics/SVG/1.1/DTD/svg11.dtd">
<svg xmlns="http://www.w3.org/2000/svg" version="1.1" width="512px" height="512px" style="shape-rendering:geometricPrecision; text-rendering:geometricPrecision; image-rendering:optimizeQuality; fill-rule:evenodd; clip-rule:evenodd" xmlns:xlink="http://www.w3.org/1999/xlink">
<g><path style="opacity:0.969" fill="#fff" d="M 264.5,-0.5 C 275.167,-0.5 285.833,-0.5 296.5,-0.5C 388.945,13.3071 454.778,62.6405 494,147.5C 503.083,169.118 508.916,191.451 511.5,214.5C 511.5,224.833 511.5,235.167 511.5,245.5C 506.443,257.362 497.443,261.862 484.5,259C 478.333,256.833 474.167,252.667 472,246.5C 470.515,168.329 437.015,108.496 371.5,67C 340.26,49.106 306.594,40.106 270.5,40C 255.18,37.0108 249.014,27.8441 252,12.5C 254.353,6.31536 258.52,1.98203 264.5,-0.5 Z"/></g>
<g><path style="opacity:0.966" fill="#fff" d="M 358.5,511.5 C 350.5,511.5 342.5,511.5 334.5,511.5C 298.933,506.478 265.266,495.311 233.5,478C 147.566,428.733 80.3996,360.9 32,274.5C 15.4241,243.606 4.59074,210.94 -0.5,176.5C -0.5,167.833 -0.5,159.167 -0.5,150.5C 0.97576,148.231 2.47576,145.898 4,143.5C 28.1667,119.333 52.3333,95.1667 76.5,71C 84.4397,65.8662 92.773,65.1996 101.5,69C 139.972,106.472 178.139,144.305 216,182.5C 222.354,192.663 221.687,202.33 214,211.5C 205.123,220.042 196.623,228.875 188.5,238C 193.546,247.926 199.713,257.093 207,265.5C 221.901,282.402 238.067,297.902 255.5,312C 261.081,315.914 266.915,319.414 273,322.5C 283.125,313.376 292.958,303.876 302.5,294C 310.008,289.802 317.674,289.469 325.5,293C 363.639,330.139 401.472,367.639 439,405.5C 445,414.833 445,424.167 439,433.5C 414.5,458 390,482.5 365.5,507C 363.102,508.524 360.769,510.024 358.5,511.5 Z M 89.5,116.5 C 116.916,142.414 143.916,168.914 170.5,196C 162.667,203.833 154.833,211.667 147,219.5C 143.157,225.878 142.157,232.545 144,239.5C 149.176,253.52 156.176,266.52 165,278.5C 189.026,309.861 217.526,336.361 250.5,358C 257.152,361.826 264.152,364.826 271.5,367C 276.921,367.839 282.254,367.506 287.5,366C 296.47,358.031 305.137,349.697 313.5,341C 314.167,340.333 314.833,340.333 315.5,341C 341.333,366.833 367.167,392.667 393,418.5C 393.667,419.167 393.667,419.833 393,420.5C 376.5,437 360,453.5 343.5,470C 324.922,468.857 306.922,464.857 289.5,458C 243.014,438.606 201.347,411.94 164.5,378C 131.345,347.093 102.845,312.593 79,274.5C 59.1331,241.402 46.2997,205.735 40.5,167.5C 40.6667,166.833 40.8333,166.167 41,165.5C 57.3685,149.299 73.5351,132.965 89.5,116.5 Z"/></g>
<g><path style="opacity:0.968" fill="#fff" d="M 264.5,79.5 C 329.415,78.9947 378.582,106.328 412,161.5C 426.701,187.972 433.035,216.305 431,246.5C 425.657,257.752 416.824,261.919 404.5,259C 398.333,256.833 394.167,252.667 392,246.5C 390.823,190.597 364.99,151.097 314.5,128C 298.306,122.412 281.639,119.412 264.5,119C 253.184,113.534 249.017,104.701 252,92.5C 254.353,86.3154 258.52,81.982 264.5,79.5 Z"/></g>
<g><path style="opacity:0.965" fill="#fff" d="M 264.5,159.5 C 302.352,158.206 329.518,174.539 346,208.5C 351.045,220.716 352.711,233.382 351,246.5C 345.657,257.752 336.824,261.919 324.5,259C 318.333,256.833 314.167,252.667 312,246.5C 310.835,216.001 295.001,200.168 264.5,199C 253.184,193.534 249.017,184.701 252,172.5C 254.353,166.315 258.52,161.982 264.5,159.5 Z"/></g>
</svg>
