<?xml version="1.0" standalone="no"?>
<!DOCTYPE svg PUBLIC "-//W3C//DTD SVG 20010904//EN"
 "http://www.w3.org/TR/2001/REC-SVG-20010904/DTD/svg10.dtd">
<svg version="1.0" xmlns="http://www.w3.org/2000/svg"
 width="512.000000pt" height="512.000000pt" viewBox="0 0 512.000000 512.000000"
 preserveAspectRatio="xMidYMid meet">

<g transform="translate(0.000000,512.000000) scale(0.100000,-0.100000)"
fill="#fff" stroke="none">
<path d="M893 4946 c-188 -36 -343 -118 -473 -248 -484 -487 -254 -1302 416
-1473 45 -12 117 -19 209 -21 77 -2 171 -9 209 -15 58 -11 73 -10 95 2 36 20
50 63 30 97 -29 52 -110 72 -291 72 -156 0 -250 20 -368 77 -80 40 -109 61
-186 137 -76 77 -97 106 -136 186 -120 246 -103 502 50 727 198 292 586 394
907 238 152 -74 254 -176 331 -330 53 -109 74 -202 74 -338 1 -189 45 -345
134 -472 25 -36 46 -69 46 -73 0 -4 -92 -99 -205 -212 -254 -254 -248 -236
-116 -363 75 -73 98 -88 145 -102 63 -18 119 -14 173 14 49 25 316 290 338
336 26 53 26 157 1 205 -10 19 -71 89 -135 155 -172 177 -221 288 -221 500 0
263 -85 479 -255 651 -113 115 -246 192 -410 236 -93 25 -269 32 -362 14z
m1211 -1586 c63 -70 58 -82 -102 -242 -160 -160 -166 -162 -238 -96 l-45 42
168 168 c92 92 171 168 174 168 4 0 23 -18 43 -40z"/>
<path d="M2366 4939 c-107 -8 -295 -39 -368 -59 -59 -17 -84 -71 -57 -121 18
-34 53 -41 127 -24 205 46 490 65 682 45 253 -26 244 -26 268 5 50 64 13 116
-94 134 -173 28 -359 35 -558 20z"/>
<path d="M3763 4940 c-29 -12 -37 -29 -62 -141 l-22 -96 -42 -13 c-23 -7 -58
-20 -78 -30 l-35 -18 -83 54 c-121 78 -123 78 -254 -54 -133 -133 -133 -136
-57 -253 51 -77 53 -82 41 -112 -7 -18 -20 -52 -29 -77 -9 -25 -17 -46 -18
-48 -1 -2 -49 -14 -105 -27 -141 -32 -139 -28 -139 -217 0 -182 2 -186 126
-212 95 -20 124 -31 124 -48 0 -7 13 -40 29 -74 l28 -60 -53 -81 c-80 -123
-79 -130 39 -251 93 -95 141 -127 174 -115 10 3 53 29 96 56 47 30 84 47 95
44 60 -19 138 -59 144 -74 4 -10 15 -54 24 -97 26 -124 30 -126 214 -126 145
0 152 1 174 24 15 14 28 45 36 82 24 125 29 133 95 161 33 13 68 27 77 30 11
3 48 -14 95 -44 43 -27 86 -53 96 -56 33 -12 81 20 175 115 115 119 117 129
38 250 l-53 82 27 60 c15 34 30 68 33 78 4 11 35 23 103 38 144 33 144 33 144
220 0 186 -1 187 -135 215 -50 10 -94 22 -99 26 -10 9 -66 139 -66 154 0 5 23
44 50 85 76 114 74 121 -58 253 -130 130 -131 130 -252 53 l-84 -54 -36 18
c-19 10 -54 23 -77 30 l-42 13 -23 100 c-32 146 -26 142 -205 144 -81 1 -158
-2 -170 -7z m222 -172 c2 -13 12 -54 20 -93 9 -38 23 -77 32 -87 8 -9 41 -25
72 -34 31 -8 88 -32 127 -51 84 -42 92 -41 192 23 l73 47 40 -39 c21 -21 39
-41 39 -45 0 -5 -22 -43 -50 -86 -27 -43 -50 -86 -50 -95 0 -10 18 -52 39 -95
22 -43 44 -98 51 -123 7 -25 19 -53 27 -62 8 -9 57 -26 109 -38 l94 -22 0 -58
c0 -66 8 -59 -103 -85 -38 -8 -77 -19 -87 -25 -10 -6 -28 -39 -40 -77 -12 -38
-37 -96 -56 -131 -19 -34 -34 -70 -34 -80 0 -9 23 -54 51 -100 l52 -84 -39
-39 c-21 -21 -42 -39 -46 -39 -4 0 -38 20 -76 44 -38 24 -77 46 -88 50 -12 4
-46 -7 -89 -27 -39 -19 -100 -44 -138 -56 -76 -26 -86 -38 -106 -136 -21 -101
-16 -95 -81 -95 -65 0 -60 -6 -81 95 -20 98 -30 110 -106 136 -38 12 -99 37
-136 56 -79 39 -82 39 -179 -23 -38 -24 -72 -44 -76 -44 -4 0 -25 18 -46 39
l-39 39 52 84 c28 46 51 91 51 100 0 10 -15 46 -34 80 -19 35 -42 89 -51 122
-21 73 -39 90 -106 106 -30 6 -71 16 -91 21 l-38 10 0 58 0 59 94 21 c52 12
100 29 109 39 8 9 20 37 27 62 7 25 29 80 51 123 21 43 39 85 39 95 0 9 -23
52 -50 95 -28 43 -50 81 -50 86 0 4 18 24 39 45 l39 38 83 -51 c46 -28 91 -51
101 -51 10 0 49 15 86 34 38 19 93 42 124 51 30 8 63 24 71 33 9 10 23 49 32
87 8 39 18 80 20 93 5 20 11 22 65 22 54 0 60 -2 65 -22z"/>
<path d="M3806 4384 c-174 -42 -314 -182 -361 -359 -78 -300 161 -605 475
-605 314 0 553 304 475 605 -69 262 -330 422 -589 359z m258 -178 c203 -99
248 -370 89 -529 -21 -22 -60 -51 -88 -65 -44 -24 -62 -27 -145 -27 -83 0
-101 3 -145 27 -196 103 -246 350 -104 511 74 85 153 119 266 113 52 -2 86
-10 127 -30z"/>
<path d="M1103 4028 c-148 -149 -163 -174 -121 -222 16 -19 33 -27 56 -28 29
-1 44 10 112 77 44 44 81 77 83 74 2 -2 18 -35 35 -72 55 -120 159 -268 267
-383 49 -51 116 -47 140 10 17 41 7 65 -61 140 -110 121 -198 270 -255 430
-30 85 -48 105 -93 106 -25 0 -52 -22 -163 -132z"/>
<path d="M256 3158 c-27 -24 -48 -110 -77 -308 -18 -122 -18 -537 1 -570 28
-52 79 -65 121 -31 22 18 23 20 24 282 1 228 5 280 24 384 37 192 37 212 11
240 -29 31 -71 32 -104 3z"/>
<path d="M4812 3020 c-40 -17 -47 -50 -33 -153 19 -139 25 -396 11 -522 -26
-240 -26 -229 5 -253 34 -27 65 -28 98 -2 29 23 40 73 58 275 20 221 -9 598
-49 637 -22 22 -61 30 -90 18z"/>
<path d="M1065 2219 c-132 -18 -277 -67 -313 -107 -29 -31 -24 -77 10 -105 27
-23 64 -19 165 17 309 108 665 20 902 -224 267 -274 327 -687 148 -1024 -112
-211 -328 -381 -562 -442 -99 -27 -332 -27 -430 0 -307 82 -538 307 -632 613
-23 78 -26 105 -27 238 -1 128 3 162 22 230 27 95 87 221 138 289 l36 48 58
-57 57 -57 -35 -51 c-266 -393 -75 -931 386 -1085 67 -23 94 -26 212 -26 118
0 145 3 212 26 427 143 627 608 430 1006 -134 271 -433 431 -730 392 -48 -6
-97 -17 -108 -25 -45 -29 -38 -111 12 -134 19 -8 42 -8 91 0 179 31 371 -35
504 -173 57 -60 121 -183 138 -266 71 -344 -197 -672 -549 -672 -422 0 -691
446 -494 821 20 38 39 69 43 69 4 0 31 -24 60 -54 l53 -54 -26 -65 c-49 -123
-44 -236 16 -350 39 -73 102 -130 186 -170 61 -29 76 -32 162 -32 86 0 101 3
162 32 84 40 147 97 186 170 99 188 43 411 -131 524 -65 42 -108 49 -144 24
-50 -35 -36 -99 30 -139 25 -14 61 -44 80 -66 93 -109 66 -278 -57 -355 -44
-27 -58 -30 -126 -30 -68 0 -82 3 -126 30 -30 19 -60 49 -79 79 -26 43 -30 59
-30 120 0 122 2 122 109 18 74 -74 99 -92 122 -92 60 0 100 61 74 112 -15 29
-761 780 -814 819 -49 37 -70 36 -107 0 -42 -42 -38 -73 15 -129 l44 -46 -54
-77 c-71 -101 -129 -226 -161 -347 -22 -82 -26 -120 -27 -242 -1 -196 25 -312
109 -480 251 -501 863 -710 1372 -469 146 69 304 202 399 334 63 89 130 235
161 350 23 88 26 119 26 255 0 134 -4 168 -26 252 -104 394 -414 686 -813 767
-78 15 -250 21 -329 10z"/>
<path d="M3825 2224 c-281 -39 -485 -140 -659 -324 -123 -130 -206 -282 -253
-458 -22 -82 -26 -120 -27 -242 -1 -196 25 -312 109 -480 251 -501 863 -710
1372 -469 146 69 304 202 399 334 63 89 130 235 161 350 22 86 26 121 27 250
0 92 -5 166 -12 192 -21 72 -77 93 -129 49 -25 -22 -27 -28 -23 -77 3 -30 5
-112 4 -184 -1 -147 -25 -248 -88 -373 -118 -234 -354 -415 -608 -466 -273
-56 -566 25 -769 212 -371 343 -387 910 -34 1267 172 175 378 260 625 260 172
-1 327 -42 450 -120 80 -51 150 -30 150 46 0 47 -30 74 -144 128 -95 46 -155
67 -247 86 -70 15 -253 26 -304 19z"/>
<path d="M4328 1453 l-408 -408 -193 192 c-212 213 -231 225 -282 181 -20 -18
-28 -34 -28 -57 0 -30 24 -58 239 -272 182 -181 246 -239 264 -239 19 0 129
104 477 452 402 402 453 456 453 484 0 41 -36 74 -80 74 -32 0 -65 -30 -442
-407z"/>
<path d="M2105 315 c-31 -30 -32 -66 -2 -100 35 -41 169 -58 457 -59 289 0
421 17 457 59 30 34 29 70 -3 102 -28 28 -19 28 -224 3 -115 -14 -382 -11
-505 5 -145 20 -152 19 -180 -10z"/>
</g>
</svg>
