<?xml version="1.0" standalone="no"?>
<!DOCTYPE svg PUBLIC "-//W3C//DTD SVG 20010904//EN"
 "http://www.w3.org/TR/2001/REC-SVG-20010904/DTD/svg10.dtd">
<svg version="1.0" xmlns="http://www.w3.org/2000/svg"
 width="512.000000pt" height="512.000000pt" viewBox="0 0 512.000000 512.000000"
 preserveAspectRatio="xMidYMid meet">

<g transform="translate(0.000000,512.000000) scale(0.100000,-0.100000)"
fill="#fff" stroke="none">
<path d="M2375 5034 c-16 -2 -73 -9 -125 -15 -855 -98 -1624 -676 -1969 -1480
-87 -202 -150 -434 -183 -669 -17 -124 -17 -496 1 -620 30 -220 111 -521 174
-650 27 -55 64 -72 105 -49 23 13 27 21 26 59 0 26 -17 85 -38 140 -48 121
-100 322 -123 475 -24 165 -24 505 0 665 146 953 832 1710 1757 1940 209 52
315 64 555 64 387 1 679 -64 1010 -223 227 -109 404 -229 578 -390 108 -101
126 -105 192 -40 23 21 43 39 46 39 3 0 9 -55 13 -122 3 -68 9 -156 13 -197
l6 -74 -134 7 c-74 4 -165 9 -202 13 l-68 6 45 46 c65 65 63 90 -11 159 -409
384 -930 591 -1483 591 -759 0 -1451 -394 -1848 -1052 -335 -555 -394 -1264
-157 -1873 55 -143 110 -250 130 -258 35 -13 74 -6 89 16 22 31 20 50 -13 116
-196 392 -258 866 -170 1307 45 225 157 497 284 690 394 597 1050 938 1755
912 494 -19 905 -187 1294 -528 6 -5 -22 -42 -67 -88 -42 -43 -77 -86 -77 -96
0 -23 17 -53 38 -64 10 -5 167 -19 350 -31 351 -22 365 -22 381 23 4 12 -2
171 -14 354 -23 367 -24 373 -89 373 -26 0 -45 -13 -101 -70 -38 -38 -73 -70
-78 -70 -4 0 -54 39 -110 86 -391 329 -863 526 -1377 573 -107 10 -336 13
-405 5z"/>
<path d="M2410 4249 c-723 -60 -1345 -605 -1504 -1319 -224 -1008 493 -1976
1524 -2059 281 -23 540 22 836 145 7 3 13 -29 17 -98 3 -57 13 -128 21 -158 8
-30 12 -58 10 -62 -3 -4 -60 -25 -127 -47 -235 -77 -451 -107 -697 -98 -490
18 -907 188 -1294 528 -6 5 22 42 67 88 42 43 77 86 77 96 0 23 -17 53 -38 64
-10 5 -167 19 -350 31 -351 22 -365 22 -381 -23 -4 -12 2 -172 14 -355 19
-310 22 -334 42 -353 38 -39 68 -28 147 50 39 39 75 71 79 71 4 0 54 -39 110
-86 270 -228 611 -407 947 -497 516 -140 1089 -106 1572 91 l96 40 59 -44 c77
-58 204 -120 300 -146 114 -31 326 -31 438 -1 320 87 551 318 638 638 31 116
31 316 -1 435 -28 103 -87 224 -146 303 l-44 59 40 96 c75 183 128 390 160
617 17 118 16 493 -1 615 -30 220 -108 511 -174 649 -27 56 -64 74 -105 50
-42 -23 -40 -62 11 -196 100 -262 141 -502 141 -813 0 -267 -26 -456 -95 -680
-23 -76 -80 -230 -85 -230 -3 0 -143 88 -153 96 -2 2 15 60 37 129 134 402
146 846 36 1255 -48 178 -165 451 -199 464 -35 13 -74 6 -89 -16 -23 -33 -21
-45 30 -154 186 -398 239 -839 153 -1269 -21 -102 -94 -341 -107 -349 -4 -2
-32 2 -62 10 -30 8 -101 18 -158 21 -89 5 -102 8 -96 22 46 112 87 237 108
331 171 773 -213 1560 -926 1900 -192 91 -373 140 -594 159 -131 12 -145 12
-284 0z m410 -155 c330 -56 616 -208 855 -455 260 -268 402 -583 435 -960 22
-263 -26 -532 -141 -780 l-40 -86 -83 -32 c-169 -66 -325 -192 -420 -339 -46
-71 -106 -200 -106 -229 0 -18 -157 -92 -280 -132 -264 -84 -534 -98 -806 -41
-186 39 -379 120 -545 231 -128 86 -334 292 -418 418 -311 469 -352 1049 -111
1547 302 623 979 973 1660 858z m1545 -2424 c190 -59 359 -194 442 -355 69
-133 88 -210 88 -355 0 -145 -19 -222 -88 -355 -58 -111 -181 -234 -292 -292
-133 -69 -210 -88 -355 -88 -145 0 -221 19 -355 88 -111 57 -235 181 -292 292
-69 134 -88 210 -88 355 0 145 19 221 88 355 57 111 181 235 292 292 147 75
228 94 380 88 75 -2 132 -10 180 -25z m-3317 -457 l63 -6 -45 -46 c-64 -65
-63 -89 12 -159 357 -335 793 -534 1277 -583 296 -30 690 21 944 121 28 11 57
20 64 20 9 0 88 -113 105 -151 3 -7 -162 -69 -264 -99 -215 -61 -394 -85 -649
-85 -377 1 -674 67 -1000 224 -224 108 -403 228 -570 383 -44 41 -90 80 -102
86 -29 16 -59 3 -102 -42 -19 -20 -38 -36 -41 -36 -4 0 -10 55 -14 123 -3 67
-9 155 -13 196 l-6 74 139 -7 c76 -4 167 -9 202 -13z"/>
<path d="M2350 3875 c-455 -77 -835 -374 -1015 -795 -229 -535 -74 -1174 373
-1541 267 -219 565 -320 906 -306 206 8 363 48 540 137 364 182 623 520 711
925 22 99 30 321 16 430 -77 591 -526 1054 -1116 1150 -108 18 -311 18 -415 0z
m140 -175 c0 -59 24 -90 70 -90 46 0 70 31 70 90 0 58 -4 57 123 35 207 -36
420 -133 567 -258 l33 -28 -37 -38 c-42 -43 -45 -72 -11 -106 33 -34 58 -31
105 11 l40 36 20 -23 c127 -148 229 -369 265 -576 22 -127 23 -123 -35 -123
-59 0 -90 -24 -90 -70 0 -46 31 -70 90 -70 58 0 57 4 35 -123 -31 -179 -103
-353 -204 -492 -87 -121 -74 -113 -121 -71 -47 42 -72 45 -105 11 -34 -34 -31
-63 12 -107 l36 -37 -24 -21 c-148 -127 -369 -229 -576 -265 -127 -22 -123
-23 -123 35 0 59 -24 90 -70 90 -46 0 -70 -31 -70 -90 0 -58 4 -57 -123 -35
-207 36 -420 133 -566 258 l-33 27 36 40 c41 46 44 67 15 104 -29 37 -65 34
-110 -10 l-38 -37 -28 33 c-125 147 -222 360 -258 567 -22 127 -23 123 35 123
59 0 90 24 90 70 0 46 -31 70 -90 70 -58 0 -57 -4 -35 123 36 207 133 420 258
566 l27 33 40 -36 c47 -42 72 -45 105 -11 34 34 31 63 -11 106 l-37 38 33 28
c101 86 264 174 399 217 85 27 212 53 264 55 26 1 27 -1 27 -49z"/>
<path d="M2497 3305 c-50 -17 -85 -50 -108 -100 -16 -35 -19 -67 -19 -241 0
-193 -1 -202 -21 -220 -32 -28 -69 -113 -69 -159 0 -39 -6 -47 -166 -205 -100
-99 -174 -181 -185 -205 -34 -73 -22 -144 34 -204 59 -62 136 -77 212 -42 24
11 106 85 205 185 158 160 166 166 205 166 86 0 193 78 234 170 41 91 17 236
-48 294 -20 18 -21 27 -21 220 0 173 -3 207 -19 241 -22 50 -69 91 -119 105
-48 13 -68 12 -115 -5z m91 -141 c21 -15 22 -21 22 -170 l0 -154 -50 0 -50 0
0 154 c0 149 1 155 22 170 12 9 25 16 28 16 3 0 16 -7 28 -16z m46 -483 c87
-57 88 -187 1 -241 -94 -58 -215 9 -215 120 0 80 60 140 140 140 27 0 56 -8
74 -19z m-372 -493 c-141 -141 -164 -155 -196 -122 -33 32 -18 55 121 196
l137 138 38 -37 39 -38 -139 -137z"/>
<path d="M4400 1340 c-19 -10 -109 -93 -199 -184 l-165 -165 -52 45 c-69 58
-116 78 -168 70 -121 -19 -187 -141 -137 -251 20 -45 242 -261 289 -282 40
-18 101 -15 147 6 61 28 518 494 535 545 38 117 -49 237 -170 236 -25 -1 -61
-9 -80 -20z m108 -132 c7 -7 12 -19 12 -27 0 -23 -461 -481 -484 -481 -23 0
-236 207 -236 230 0 20 19 40 38 40 8 0 49 -34 91 -75 61 -59 84 -75 107 -75
25 0 60 31 229 200 110 110 207 200 215 200 9 0 21 -5 28 -12z"/>
<path d="M4655 3758 c-28 -16 -35 -28 -35 -65 0 -22 7 -37 22 -47 48 -34 108
-7 108 48 0 18 -6 40 -12 49 -17 22 -59 29 -83 15z"/>
<path d="M387 1472 c-19 -21 -22 -64 -7 -92 13 -24 55 -33 83 -19 30 16 37 28
37 66 0 55 -76 86 -113 45z"/>
</g>
</svg>
