<?xml version="1.0" standalone="no"?>
<!DOCTYPE svg PUBLIC "-//W3C//DTD SVG 20010904//EN"
 "http://www.w3.org/TR/2001/REC-SVG-20010904/DTD/svg10.dtd">
<svg version="1.0" xmlns="http://www.w3.org/2000/svg"
 width="512.000000pt" height="512.000000pt" viewBox="0 0 512.000000 512.000000"
 preserveAspectRatio="xMidYMid meet">

<g transform="translate(0.000000,512.000000) scale(0.100000,-0.100000)"
fill="#fff" stroke="none">
<path d="M1941 5110 c-235 -50 -418 -203 -504 -421 -103 -259 -23 -563 194
-746 123 -103 261 -154 424 -154 212 -1 393 85 525 250 96 120 143 253 144
411 0 119 -14 181 -69 295 -106 221 -323 362 -570 371 -55 2 -120 -1 -144 -6z
m219 -342 c92 -26 193 -129 219 -223 58 -210 -103 -425 -319 -425 -121 0 -241
75 -298 185 -37 72 -42 188 -12 268 60 159 238 244 410 195z"/>
<path d="M1755 3765 c-116 -36 -138 -55 -542 -458 -412 -411 -433 -435 -469
-559 -21 -71 -21 -203 1 -270 39 -119 60 -146 297 -384 l230 -231 -22 -79
c-92 -339 -228 -655 -407 -950 -90 -149 -116 -221 -116 -334 0 -220 142 -412
353 -477 73 -22 217 -22 290 0 136 42 224 121 333 299 188 306 328 613 442
963 l52 160 264 0 264 0 5 -195 c4 -117 11 -206 18 -223 16 -37 17 -35 -25
-43 -60 -11 -167 -52 -234 -90 -247 -139 -408 -392 -425 -669 -5 -82 -4 -94
18 -135 17 -32 37 -52 68 -68 l44 -22 1033 0 c850 0 1039 2 1066 14 42 17 84
67 97 114 14 55 -5 198 -40 305 -89 263 -315 475 -579 540 -35 9 -66 18 -68
20 -2 3 2 26 9 53 10 37 13 167 13 524 0 438 -1 479 -19 530 -60 177 -192 301
-367 344 -55 13 -135 16 -510 16 l-444 0 4 437 c2 315 0 453 -9 493 -38 177
-176 320 -359 374 -65 19 -208 20 -266 1z m198 -329 c50 -20 95 -78 103 -131
8 -59 1 -782 -9 -791 -4 -4 -67 51 -140 123 -109 108 -139 132 -170 138 -84
16 -156 -18 -188 -89 -47 -103 -31 -128 251 -411 257 -259 271 -279 255 -361
-9 -52 -77 -120 -129 -129 -86 -17 -92 -12 -480 373 -200 200 -364 371 -372
389 -18 41 -18 95 0 136 17 38 707 729 751 751 37 20 85 20 128 2z m1364
-1338 c74 -49 73 -41 73 -541 0 -444 0 -444 -23 -478 -54 -82 -171 -100 -244
-36 -60 53 -63 68 -63 350 0 246 -1 255 -23 297 -16 30 -37 51 -67 67 -42 22
-50 23 -323 23 l-279 0 6 28 c22 89 18 210 -10 305 -5 17 16 18 453 15 l459
-3 41 -27z m-1632 -604 c28 -13 76 -29 107 -35 l57 -11 -51 -147 c-96 -277
-210 -524 -351 -759 -102 -169 -138 -203 -222 -204 -89 -2 -165 74 -165 164 0
38 12 65 84 185 148 246 266 504 355 775 l42 127 47 -36 c26 -20 70 -47 97
-59z m1955 -834 c84 -13 195 -68 262 -129 51 -47 109 -131 123 -178 l6 -23
-801 0 -802 0 7 28 c15 61 103 169 181 223 53 36 131 67 197 78 74 12 749 13
827 1z"/>
</g>
</svg>
